<svg width="99" height="31" xmlns="http://www.w3.org/2000/svg">
  <path fill="#E34234"
    d="M42.317 12.433h-4.916V7.362h4.657c.793 0 2.637.49 2.637 2.53 0 1.662-.8 2.541-2.376 2.541m-.592 6.24 5.13 11.09h31.16v-6.695H62.55v-4.395h11.148v-6.23H62.549V7.395h12.885c2.763 5.155 6.124 11.423 6.187 11.543v10.82h7.59v-10.82c.11-.201 9.776-18.233 9.776-18.233h-8.65s-4.29 9.482-4.916 10.877L80.494.705H54.493v25.158l-5.121-9.544c2.408-1.24 3.886-3.97 3.886-7.256 0-2.752-1.04-4.982-3.01-6.454-1.65-1.233-3.957-1.904-6.502-1.904H29.914v29.053h7.487V18.666l4.326.007ZM0 15.16c0 8.779 6.277 15.157 14.92 15.157 1.2 0 5.049-.239 7.698-2.993-.005.913 0 2.435 0 2.435h5.87V12.425H15.735v6.248h5.188c-.619 2.284-2.967 4.449-6.17 4.449-4.688-.003-6.351-4.115-6.351-7.962 0-3.848 1.671-7.957 6.356-7.957 2.348 0 4.268.905 5.013 2.36l.12.255h8.513l-.113-.552C26.841 2.43 20.181 0 14.921 0 6.277 0 0 6.378 0 15.16Z">
  </path>
</svg>